<?xml version="1.0" encoding="UTF-8"?>
<svg id="Layer_1" data-name="Layer 1" xmlns="http://www.w3.org/2000/svg" viewBox="0 0 31.97 25.36">
  <defs>
    <style>
      .cls-1 {
        fill: #fcc301;
      }

      .cls-2 {
        fill: #bebdbd;
      }

      .cls-3 {
        fill: #4bc2e7;
      }

      .cls-4 {
        fill: #2f6491;
      }

      .cls-5 {
        fill: #ee8804;
      }

      .cls-6 {
        fill: #a9a8a9;
      }

      .cls-7 {
        fill: #fddf01;
      }

      .cls-8 {
        fill: #141314;
      }

      .cls-9 {
        fill: #93daf2;
      }

      .cls-10 {
        fill: #26a6d6;
      }

      .cls-11 {
        fill: #b8e8f7;
      }

      .cls-12 {
        fill: #fda302;
      }

      .cls-13 {
        fill: #3583bb;
      }

      .cls-14 {
        fill: #0b2d4d;
      }

      .cls-15 {
        fill: #1d90c3;
      }

      .cls-16 {
        fill: #484846;
      }

      .cls-17 {
        fill: #fff;
      }

      .cls-18 {
        fill: #8595b5;
      }

      .cls-19 {
        fill: #272626;
      }

      .cls-20 {
        fill: #05204b;
      }

      .cls-21 {
        fill: #989696;
      }

      .cls-22 {
        fill: #174876;
      }
    </style>
  </defs>
  <g id="Generative_Object" data-name="Generative Object">
    <g>
      <g>
        <path class="cls-22" d="M21.86,15.22v.82H5.22l-.15.13-.02-.09c-.53.05-1.18-.11-1.66.09,0-.08-.04-.1-.04-.13,0-.26.09-.55.04-.82,6.15-.08,12.32,0,18.47,0Z"/>
        <path class="cls-4" d="M21.82,16.04l-.02.86H7.57c-.83,0-1.67-.04-2.5.04,0,0-.05,0-.04-.04l.04-.73.15-.13h16.59Z"/>
        <path class="cls-22" d="M21.9,16.08v.82c0,.29.01.58,0,.86-1.41,0-2.82,0-4.23,0-.28,0-.58-.04-.86-.04-.55,0-1.1.04-1.64.04-.29,0-.58,0-.86,0-1.39,0-2.79,0-4.19,0-.82,0-1.66.03-2.48-.04,0,.06-.06.12-.06.13.01-.1-.01-.08-.09-.09.18-.21.04-.6.09-.86h14.22l.02-.86h.04l.04.04Z"/>
        <path class="cls-20" d="M30.27,15.22c-.02.12.03.78-.02.82-.09.07-1.42-.08-1.6,0-.15.07,0,.8-.09.86-.09.07-1.42-.08-1.6,0-.15.07,0,.8-.09.86-.1.07-2.15-.05-2.46,0-.03.02-.03.64-.02.73-.19.15-.57.08-.82.09-.55,0-1.11,0-1.66,0l-.15.86c-.41-.06-1.15,0-1.6,0,0-.27,0-.55,0-.82.55-.02,1.11-.08,1.66-.04.08-.03.06-.7.06-.82.36,0,2.23.06,2.4,0,.19-.07.08-.63.11-.82.31,0,2.38.03,2.48-.04.06-.04,0-.66.02-.78.2,0,1.51,0,1.58-.04.14-.07,0-.72.11-.86.56,0,1.12.02,1.68,0Z"/>
        <path class="cls-20" d="M7.57,16.9c-.04.26.1.65-.09.86-.72-.09-1.62.07-2.35,0-.15-.07,0-.69-.06-.82.83-.08,1.67-.04,2.5-.04Z"/>
        <path class="cls-22" d="M14.31,18.63c0,.27,0,.55,0,.82-.83-.05-1.68.05-2.5.04,0,0,.02-.04-.09-.04.18-.2.05-.57.09-.82.83,0,1.67-.02,2.5,0Z"/>
        <path class="cls-20" d="M14.31,19.45c0,.26-.04.56-.04.82-.3-.05-2.34.07-2.44,0-.06-.04,0-.66-.02-.78.83.01,1.67-.1,2.5-.04Z"/>
        <path class="cls-20" d="M11.8,18.63c-.04.25.09.62-.09.82-.25,0-1.53.06-1.6-.09-.05-.11.04-.58,0-.73.11,0,.08-.04.09-.04.53,0,1.07.04,1.6.04Z"/>
        <path class="cls-14" d="M3.39,15.22c.05.27-.04.56-.04.82h-1.62s-.04-.69-.02-.73c.06-.15,1.41-.08,1.68-.09Z"/>
        <path class="cls-20" d="M5.07,16.17l-.04.73h-1.62s-.02-.62-.02-.73c.48-.2,1.13-.03,1.66-.09l.02.09Z"/>
        <path class="cls-14" d="M28.59,15.22c-.11.15.03.79-.11.86-.07.04-1.37.04-1.58.04,0,0,.01-.09-.02-.09-1.66,0-3.33.02-4.98.04l-.04-.04v-.82c2.24,0,4.49.02,6.73,0Z"/>
        <path class="cls-22" d="M26.91,16.13c-.02.12.03.74-.02.78-.1.07-2.17.04-2.48.04-.83,0-1.67-.09-2.5-.04v-.82c1.66-.02,3.32-.04,4.98-.04.04,0,.02.09.02.09Z"/>
        <path class="cls-22" d="M21.9,17.77c0,.12.02.79-.06.82-.55-.03-1.11.03-1.66.04-.83.02-1.67-.03-2.5,0,0-.29,0-.58,0-.86,1.41,0,2.82,0,4.23,0Z"/>
        <path class="cls-22" d="M14.31,17.77l.04.82-.04.04c-.83-.02-1.67,0-2.5,0-.53,0-1.06-.04-1.6-.04-.19-.16-.04-.6-.09-.82,1.4,0,2.79,0,4.19,0Z"/>
        <path class="cls-22" d="M24.4,16.95c-.03.19.09.74-.11.82-.16.06-2.04,0-2.4,0,.01-.29,0-.58,0-.86.83-.05,1.67.04,2.5.04Z"/>
        <path class="cls-22" d="M20.18,18.63c0,.27,0,.55,0,.82-.83,0-1.65,0-2.48,0-.04-.03-.02-.71-.02-.82.83-.03,1.67.02,2.5,0Z"/>
      </g>
      <g>
        <g>
          <path class="cls-20" d="M17.67,17.77c0,.29,0,.58,0,.86,0,.11-.02.79.02.82.83,0,1.65,0,2.48,0,0,.12.02.79-.02.82l-2.48.06c-.05.31.07,2.36,0,2.46-.05.08-.73-.04-.86.06,0-.01,0-.03,0-.04,0-1.7,0-3.4,0-5.09.29,0,.59.04.86.04Z"/>
          <path class="cls-8" d="M15.17,23.68c0,.27,0,.53,0,.8.03.04.7.02.82.02.26,0,.54-.04.8.04.04,0,.06-.77.06-.86.12.02.78-.03.82.02.05.07.01,1.63-.06,1.66h-3.24c-.08-.04-.1-1.54-.06-1.62.06-.13.72-.04.86-.06Z"/>
          <path class="cls-4" d="M15.17,18.59s.03,0,.04,0l-.13,4.23c-.11,0-.7.02-.73-.02-.05-.65.01-1.29,0-1.94,0-.14-.09-.45-.09-.58,0-.26.03-.56.04-.82s0-.55,0-.82l.04-.04c.27,0,.55,0,.82,0Z"/>
          <path class="cls-17" d="M15.99,22.81c-.27,0-.56.05-.82.04-.11,0-.08-.04-.09-.04l.13-4.23c.12,0,.75-.02.78.02v4.21Z"/>
          <path class="cls-8" d="M15.99,22.81c.26,0,.52,0,.78,0-.03.13.03.79,0,.84-.03.04-.66.02-.78.02-.24,0-.64.06-.82-.09v-.73c.26,0,.55-.04.82-.04Z"/>
          <path class="cls-19" d="M16.81,22.86c0,.27.05.56.04.82,0,.09-.02.85-.06.86-.26-.08-.53-.04-.8-.04v-.82c.11,0,.75.02.78-.02.03-.05-.03-.71,0-.84h.04s0,.03,0,.04Z"/>
          <path class="cls-16" d="M15.99,23.68v.82c-.12,0-.79.02-.82-.02,0-.27,0-.53,0-.8,0-.03,0-.06,0-.09.18.15.58.09.82.09Z"/>
          <path class="cls-2" d="M16.81,17.72c0,1.7,0,3.4,0,5.09h-.04c-.26,0-.52,0-.78,0v-4.21s-.66-.02-.78-.02c-.01,0-.03,0-.04,0v-.82c.54,0,1.09-.04,1.64-.04Z"/>
          <path class="cls-14" d="M15.17,17.77v.82c-.27,0-.55,0-.82,0l-.04-.82c.29,0,.58,0,.86,0Z"/>
        </g>
        <g>
          <g>
            <path class="cls-2" d="M10.12,18.63c.04.16-.05.63,0,.73l-.13.09c-.22-.06-.52.04-.73.04-.13,0-.72-.1-.8-.04-.05.27-.01.55-.02.82,0,.01,0,.03,0,.04l-.86.02c-.06.08.05.67.04.8,0,.23-.06.45-.04.69-.12-.12.04-.62-.11-.69-.1-.05-.54.03-.69,0-.09.06.02.73.02.86,0,.26-.12.56,0,.82,0,0-.08.08-.09.09-.15-.16-.57-.09-.78-.09-.28,0-.56,0-.84,0-.05.03-.02.73-.02.86-.28,0-.59.03-.86-.04,0-.21-.03-1.56.04-1.62.1-.08.64.03.76-.02.15-.07,0-.69.06-.8.07-.13.77-.01.82-.09s-.08-.69.06-.8c.37-.29.95.51.82-.86,1.17.1.6-.12.91-.86.81-.05,1.63.05,2.44.04Z"/>
            <path class="cls-14" d="M10.12,17.77c.05.22-.11.66.09.82,0,0,.02.04-.09.04-.81,0-1.63-.09-2.44-.04-.31.74.26.97-.91.86.13,1.37-.45.57-.82.86-.14.11-.01.73-.06.8s-.75-.05-.82.09c-.06.11.09.73-.06.8-.12.05-.66-.06-.76.02-.07.06-.04,1.4-.04,1.62v.04c-.27-.04-.55.03-.82.04-.29.01-.58,0-.86,0,.14-.12.79.05.86-.11.08-.18-.07-1.5,0-1.6.06-.08.75.06.82-.09.05-.12-.08-.73.06-.8.5-.22.94.53.8-.8,1.33.07.6-.32.82-.82.07-.15.67,0,.8-.06.15-.07,0-.76.09-.82.07-.05.73.07.8-.06.04-.08-.04-.57,0-.71,0,0,.06-.07.06-.13.82.08,1.66.05,2.48.04Z"/>
            <path class="cls-14" d="M9.99,19.45c.15.04.11.76.09.8-.05.07-.72-.04-.8.06-.25.32.5,1.02-.84.82.02-.27-.01-.55,0-.82,0-.01,0-.03,0-.04.84.03.87.11.82-.78.22,0,.51-.1.73-.04Z"/>
            <path class="cls-6" d="M8.44,20.31c-.01.27.02.55,0,.82,0,.11-.04.08-.04.09l-.78-.09c0-.13-.1-.71-.04-.8l.86-.02Z"/>
            <path class="cls-14" d="M6.71,22.9c-.26.68.59.74-.73.78,0,0,.02-.05-.09-.04l.04-.82c.21,0,.62-.07.78.09Z"/>
            <path class="cls-6" d="M7.57,21.82c0,.1,0,.12.09.17-.03,0-.06,0-.09,0-.26.01-.52,0-.78,0,0-.13-.11-.8-.02-.86.15.03.59-.05.69,0,.15.07-.01.57.11.69Z"/>
            <path class="cls-14" d="M8.39,21.22c-.02.23.01.48,0,.71-.24,0-.49.05-.73.06-.08-.06-.08-.07-.09-.17-.02-.24.04-.46.04-.69l.78.09Z"/>
            <path class="cls-14" d="M7.57,21.99c.12,1.33-.23.61-.78.82-.12-.26,0-.56,0-.82.26,0,.52.01.78,0Z"/>
            <path class="cls-21" d="M5.93,22.81l-.04.82c-.27,0-.54.04-.82.04,0-.13-.03-.83.02-.86.28,0,.56,0,.84,0Z"/>
            <path class="cls-6" d="M9.26,19.49c.05.89.02.81-.82.78,0-.27-.02-.55.02-.82.08-.06.67.05.8.04Z"/>
          </g>
          <g>
            <path class="cls-8" d="M5.89,23.63c.11,0,.08.04.09.04l-.15,1.68h-3.24l-.06-1.64c.29,0,.58.01.86,0-.05.98-.02.77.82.78.28,0,.56,0,.84,0,.04-.03.02-.7.02-.82.28,0,.55-.03.82-.04Z"/>
            <path class="cls-19" d="M5.07,23.68c0,.12.02.79-.02.82-.28,0-.56,0-.84,0v-.86c.27.08.58.05.86.04Z"/>
            <path class="cls-16" d="M4.21,23.68v.82c-.84,0-.87.2-.82-.78.27-.01.55-.08.82-.04Z"/>
          </g>
        </g>
        <g>
          <g>
            <path class="cls-2" d="M23.58,18.59l-.04.8c.07.15.71,0,.82.09s-.02.72.06.84c.02.03.74-.06.8.02.02.03.04.69.04.8,0,.16-.1.54-.04.71.09.28.66.1.86.11.28.01.58.03.86.04.01,0,.03,0,.04,0-.18.13-.02.76-.11.82-.03.02-.72,0-.84,0s-.77.02-.8,0c-.07-.05.02-.74-.02-.8-.03-.04-.62-.02-.73-.02,0,0,.07-.04-.09-.04.15-1.35-.37-.6-.8-.82-.14-.07-.02-.73-.06-.8-.05-.07-.75.05-.82-.09-.22-.42.52-.95-.8-.8l-.02.09c-.08-.04,0-.07-.13-.09l.15-.86c.55,0,1.11,0,1.66,0Z"/>
            <path class="cls-14" d="M24.49,18.63c.11.02.67-.03.71,0,.08.06-.06.75.09.82.12.05.73-.08.8.06.05.12-.08.73.06.8.1.05.7-.05.76.02.24.33-.56.95.82.82-.29,1.24.74.69.86.86.07.09-.08,1.42,0,1.6.07.15.68-.01.82.11l-.82.02.02.8c-.27-.08-.56-.04-.84-.04v-.04l.78-.02c-.02-.12.03-.72-.02-.76-.05-.03-.64.02-.76,0v-.04c0-.24.04-1.58-.06-1.64-.24,0-.48,0-.71,0-.01,0-.03,0-.04,0-.12-.16.02-.68-.04-.8-.05-.1-.69-.06-.82-.06,0-.14.03-.74-.04-.8-.11-.09-.75.07-.82-.09-.05-.1.04-.72,0-.78-.05-.07-.77.03-.82-.04-.03-.05.02-.66,0-.78l.09-.02Z"/>
            <path class="cls-21" d="M24.49,18.63l-.09.02c.02.12-.03.73,0,.78.05.07.77-.03.82.04.04.06-.05.68,0,.78.07.15.71,0,.82.09.07.06.04.66.04.8-.27,0-.55,0-.82,0,0-.11-.02-.77-.04-.8-.06-.08-.78.01-.8-.02-.08-.12.04-.76-.06-.84s-.75.07-.82-.09l.04-.8c.25,0,.63.07.82-.09.02.12.05.05.09.13Z"/>
            <path class="cls-14" d="M24.4,21.95c-.81-.04-.93.36-.86-.8-1.38.09-.58-.36-.82-.82-.07-.14-.73-.02-.8-.06-.06-.04,0-.62-.02-.73l.02-.09c1.31-.16.58.38.8.8.07.13.77.01.82.09.05.07-.07.73.06.8.43.22.95-.53.8.82Z"/>
            <path class="cls-14" d="M24.49,21.99c.11,0,.7-.02.73.02.04.06-.05.75.02.8.03.02.68,0,.8,0,.08.27.04.58.04.86-.14,0-.74.03-.8,0-.16-.07.03-.79-.13-.86-.1-.05-.7.05-.76-.02-.02-.03-.04-.77.09-.8Z"/>
            <path class="cls-2" d="M27.77,23.63c-.25.08-.55.04-.82.04-.29,0-.58,0-.86,0,0-.28.03-.59-.04-.86.12,0,.81.02.84,0,.09-.06-.07-.69.11-.82.24,0,.48,0,.71,0,.11.06.06,1.4.06,1.64Z"/>
            <path class="cls-2" d="M26.09,21.13c0,.27,0,.55,0,.82-.2,0-.77.17-.86-.11-.06-.17.05-.56.04-.71.27,0,.55,0,.82,0Z"/>
            <path class="cls-21" d="M26.95,21.99c-.29-.01-.58-.03-.86-.04,0-.27,0-.55,0-.82.13,0,.77-.04.82.06.06.12-.07.63.04.8Z"/>
          </g>
          <g>
            <path class="cls-8" d="M26.95,23.68c.02.12-.03.78.02.82.03.02.68,0,.8,0,.28,0,.57-.04.84.04l-.02-.8.82-.02-.02,1.64h-3.24c-.11-.05-.06-1.46-.06-1.68.29,0,.58,0,.86,0Z"/>
            <path class="cls-16" d="M27.77,23.68v.82c-.12,0-.77.02-.8,0-.06-.04,0-.7-.02-.82.27,0,.57.03.82-.04v.04Z"/>
            <path class="cls-19" d="M27.77,24.45v-.78c.12.02.71-.03.76,0,.06.04,0,.64.02.76l-.78.02Z"/>
          </g>
        </g>
      </g>
    </g>
    <g>
      <path class="cls-21" d="M18.06,14.36c4.05,0,8.22.13,12.26,0-.05.24-.12.67.04.86-.03,0-.06,0-.09,0-.56.02-1.12,0-1.68,0-2.24.02-4.49,0-6.73,0-6.15,0-12.32-.08-18.47,0-.28,0-1.62-.06-1.68.09.01-.1-.01-.08-.09-.09.18-.2.05-.57.09-.82,5.39.12,10.94-.04,16.36-.04Z"/>
      <path class="cls-14" d="M27.77,11.85c-.22,0-1.59.05-1.66,0-.07-.05.05-.75-.09-.82-.23-.12-2.38.13-2.48-.06,0-.27,0-.53,0-.8,0-.01,0-.03,0-.04.33.14,2.35-.05,2.48.04.07.05.02.81.13.86.18.08,1.5-.07,1.6,0,.05.27,0,.55.02.82Z"/>
      <path class="cls-22" d="M8.44,10.17c0,.26.04.57-.04.82-.8,0-1.6,0-2.4,0-.22.09-.04.8-.13.86-.07.05-1.41-.04-1.62,0,0-.03,0-.06,0-.09,0-.11-.02-.7.02-.73.22-.03,1.52.06,1.6-.04.09-.11-.07-.75.09-.82.11-.05,2.15,0,2.48,0Z"/>
      <path class="cls-14" d="M4.16,11.85s.03.05.04.09c.02.06,0,.71-.02.73h-1.55c-.22.09-.04.8-.13.86-.07.05-1.4,0-1.62,0,0-.14-.04-.82.06-.86.23-.05,1.44.08,1.55,0,.14-.1.01-.77.09-.82.07-.05,1.37.04,1.58,0Z"/>
      <path class="cls-22" d="M31.14,13.41c-.2-.06-.01-.58-.11-.65-.03-.02-.7-.02-.73,0-.04.03-.03.66-.02.78-.12,0-.77.02-.8,0-.07-.05.05-.75-.09-.82-.21-.11-1.52.01-1.6-.04-.05-.27,0-.55-.02-.82.23,0,1.53-.04,1.62,0,.15.07,0,.71.09.82.08.1,1.42.01,1.64.04.04.03.02.59.02.69Z"/>
      <path class="cls-14" d="M.88,13.54c0,.27,0,.53,0,.8.27,0,.56.06.82.06-.04.25.09.62-.09.82-.12-.01-.7.03-.73-.02-.07-.1.12-.75-.11-.84-.52-.2-.91.49-.73-.82.28,0,.56,0,.84,0Z"/>
      <path class="cls-14" d="M30.36,15.22c-.16-.19-.09-.63-.04-.86.25,0,.5,0,.76,0,.1-.05.06-.61.06-.73,0-.03,0-.06,0-.09.12.02.75-.03.8,0,.03.02.04.77.02.8-.05.07-.65-.02-.76.02-.15.07,0,.67-.06.8-.05.11-.64.06-.78.06Z"/>
      <path class="cls-22" d="M31.14,13.41s0,.09,0,.13c0,.03,0,.06,0,.09-.21-.16-.6-.08-.86-.09-.01-.12-.01-.75.02-.78.03-.02.7-.02.73,0,.09.07-.09.58.11.65Z"/>
      <path class="cls-18" d="M4.25,11.85s.02.09-.04.09c-.01-.04-.04-.05-.04-.09l.09-.09s0,.06,0,.09Z"/>
      <path class="cls-17" d="M9.3,10.17c2.63-.01,5.27,0,7.9,0,0,.35.09.7.17,1.04l-.15-.22c-2.95.05-5.89,0-8.83,0,.08-.25.04-.56.04-.82.29,0,.58,0,.86,0Z"/>
      <g>
        <path class="cls-17" d="M8.39,10.99c2.93,0,5.88.05,8.83,0l.15.22c.24,1.05.58,2.07.69,3.15-5.41,0-10.96.16-16.36.04-.26,0-.55-.07-.82-.06,0-.27,0-.53,0-.8.22,0,1.55.05,1.62,0,.09-.07-.09-.78.13-.86h1.55s.04-.67.02-.73c.06,0,.04-.05.04-.09.21-.04,1.55.05,1.62,0,.09-.07-.09-.78.13-.86.8,0,1.6,0,2.4,0Z"/>
        <g>
          <g>
            <path class="cls-4" d="M12.67,13.45v-1.6c.12,0,.79-.02.82.02v1.6c-.06.09-.7-.02-.82-.02Z"/>
            <path class="cls-13" d="M12.67,11.85v1.6c-.13,0-.75.13-.82-.02l.06-1.58c.25,0,.5,0,.76,0Z"/>
          </g>
          <g>
            <path class="cls-13" d="M15.99,11.85v1.64c-.14,0-.77.04-.82-.06v-1.51c.05-.11.68-.06.82-.06Z"/>
            <path class="cls-4" d="M15.99,13.49v-1.64c.12,0,.79-.02.82.02v1.6s-.7.02-.82.02Z"/>
          </g>
          <g>
            <path class="cls-15" d="M10.08,11.85v1.64c-.11,0-.75.02-.78-.02v-1.6s.66-.02.78-.02Z"/>
            <path class="cls-4" d="M10.08,13.49v-1.64c.14,0,.77-.04.82.06v1.55s-.7.02-.82.02Z"/>
          </g>
          <g>
            <path class="cls-4" d="M6.71,13.49c.08-.25.04-.56.04-.82s.03-.55-.04-.82c.14,0,.82-.04.86.06v1.55s-.74.02-.86.02Z"/>
            <path class="cls-15" d="M6.71,11.85c.07.27.04.55.04.82l-.82.04c0-.27,0-.53,0-.8.05-.1.65-.06.78-.06Z"/>
            <path class="cls-13" d="M6.71,13.49c-.12,0-.75.02-.78-.02,0-.25,0-.5,0-.76l.82-.04c0,.26.03.57-.04.82Z"/>
          </g>
        </g>
      </g>
      <g>
        <path class="cls-2" d="M23.54,10.17c0,.27,0,.53,0,.8.1.2,2.25-.06,2.48.06.13.07.01.77.09.82.07.05,1.44,0,1.66,0,.01.27-.03.55.02.82.08.06,1.39-.07,1.6.04.13.07.01.77.09.82.03.02.68,0,.8,0,.26,0,.66-.07.86.09,0,.12.04.68-.06.73-.25,0-.5,0-.76,0-4.03.13-8.21,0-12.26,0-.11-1.08-.45-2.1-.69-3.15-.08-.34-.17-.68-.17-1.04,1.84,0,3.69-.04,5.52-.04.26,0,.55.09.82.04Z"/>
        <g>
          <g>
            <path class="cls-13" d="M21.86,13.49v-1.64c.27,0,.53,0,.8,0l.02,1.62c-.07.16-.69.02-.82.02Z"/>
            <path class="cls-4" d="M21.86,11.85v1.64c-.11,0-.77.11-.82-.02v-1.55c.05-.11.68-.06.82-.06Z"/>
          </g>
          <g>
            <path class="cls-13" d="M19.31,13.49v-1.64c.14,0,.77-.04.82.06v1.55c-.05.12-.69.02-.82.02Z"/>
            <path class="cls-4" d="M19.31,11.85v1.64c-.14,0-.78.08-.82-.02v-1.55c.05-.11.68-.06.82-.06Z"/>
          </g>
          <g>
            <path class="cls-4" d="M25.22,11.85v1.64c-.12,0-.79.03-.82-.02v-1.55c.05-.11.68-.06.82-.06Z"/>
            <path class="cls-13" d="M25.22,13.49v-.82l.78.02v-.8l.04,1.58c-.07.15-.69.02-.82.02Z"/>
            <path class="cls-13" d="M26,11.9v.8l-.78-.02v-.82c.14,0,.7-.03.78.04Z"/>
          </g>
        </g>
      </g>
      <g>
        <path class="cls-10" d="M18.49,5.08c0,.26,0,.53,0,.8.05.11.72.06.86.06v.82c-.17,0-.77-.05-.86.06v1.6l1.62.06c.11-.05.06-.72.06-.86.29-.03.61.08.86-.09,0,.03,0,.06,0,.09.01.26,0,.53,0,.8.03.04.7.02.82.02.16,0,.82.05.86-.04,0,.06.04.04.09.04-.15.2-.09.61-.09.86-3.91.05-7.83-.04-11.74-.04.08-.9-.06-.8-.86-.82,0-.27,0-.55,0-.82.27,0,.55,0,.82,0,.01,0,.03,0,.04,0,.03.14-.07.8.06.86.29.13,1.94-.1,2.37,0,.18-.08-.02-1.47.06-1.66.11-.26,1.18.37.86-.84.56,0,1.12-.05,1.68-.04,0,.12-.02.72,0,.76.07.1.72-.1.82.11-.08-.12-.69,0-.82,0-.25,0-.54-.09-.8-.04-.15.07,0,.76-.06.84-.05.07-.77-.03-.82.04-.02.03,0,.73.02.84.54,0,1.08,0,1.62,0,.21,0,1.64.04,1.68-.06s-.04-.61,0-.78c-.23-.09-.74.08-.86-.11,1.34.13.6-.26.82-.76.07-.15.76,0,.82-.09l-.02-.76c-.27,0-.53,0-.8,0l.04-.86c.27,0,.55,0,.82,0Z"/>
        <path class="cls-20" d="M22.72,8.4c-.04.09-.71.05-.86.04-.02-.12.03-.78-.02-.82-.05-.03-.68.02-.8,0,0-.03,0-.06,0-.09,0-.15.04-.65-.06-.73-.24-.08-.5-.03-.76-.04-.01,0-.03,0-.04,0-.02-.12.03-.78-.02-.82-.03-.02-.68,0-.8,0-.15,0-.81.05-.86-.06,0-.27,0-.53,0-.8.24,0,1.53-.04,1.62,0,.15.07,0,.67.06.8.07.15.72,0,.8.06.07.05-.04.72.06.8.32.25,1.02-.5.82.82.78.15.93-.14.86.84Z"/>
        <path class="cls-22" d="M16.81,4.21c0,.27.04.55.04.82-.28,0-.58.04-.86.04-.83,0-1.67,0-2.5,0,0-.12-.02-.79.02-.82h1.66c0,.11-.02.7.02.73h.82s.02-.66.02-.78c.26,0,.52,0,.78,0Z"/>
        <path class="cls-22" d="M13.49,5.08c0,.28.04.59-.04.86-.26,0-.52,0-.78,0s-.53,0-.8,0c-.1.05-.06.69-.06.82-.27,0-.55,0-.82,0,.03-1.42.05-.55.76-.82.23-.09.02-.82.13-.86.54,0,1.08,0,1.62,0Z"/>
        <path class="cls-14" d="M9.21,8.44s.03.09.09.09c-.05.08,0,.59,0,.73,0,.3-.01.61,0,.91-.29,0-.58,0-.86,0,0-.55,0-1.11,0-1.66.2.02.61-.08.78-.06Z"/>
        <path class="cls-20" d="M23.54,10.13s0,.03,0,.04c-.27.05-.56-.04-.82-.04,0-.27,0-.55,0-.82,0-.26-.06-.66.09-.86.14,0,.68-.05.73.06.04.1,0,1.37,0,1.62Z"/>
        <path class="cls-20" d="M18.49,5.08c-.27,0-.55,0-.82,0s-.56-.04-.82-.04c0-.27-.04-.55-.04-.82.55,0,1.11.08,1.66.04.04.03.02.7.02.82Z"/>
        <path class="cls-22" d="M10.98,6.76c0,.28.04.59-.04.86-.27,0-.55,0-.82,0,0-.14-.04-.82.06-.86.27,0,.53,0,.8,0Z"/>
        <path class="cls-22" d="M10.12,7.62c0,.27,0,.55,0,.82-.18,0-.74-.05-.82.09-.05,0-.08-.09-.09-.09.19-.11.01-.75.11-.82.03-.02.68,0,.8,0Z"/>
        <path class="cls-4" d="M16.03,4.21c0,.12.02.75-.02.78h-.82s-.02-.62-.02-.73c0-.01,0-.03,0-.04.28.1.58,0,.86,0Z"/>
        <g>
          <path class="cls-21" d="M16.03,2.53h.65c-.06.2-.58.01-.65.11-.05.06,0,1.36,0,1.58-.29,0-.58.1-.86,0-.02-.56.05-1.13.04-1.68h.82Z"/>
          <path class="cls-21" d="M16.81,2.53c0,.56-.01,1.12,0,1.68-.26,0-.52,0-.78,0,0-.22-.05-1.51,0-1.58.07-.09.58.09.65-.11h.13Z"/>
          <path class="cls-5" d="M16.81,1.71h-.09c-.23,0-.47-.04-.69-.04-.08-.27-.04-.58-.04-.86.12-.02.71.03.76,0,.08-.05-.05-.62.06-.73.09.09,0,1.4,0,1.64Z"/>
          <path class="cls-1" d="M16.03.03c-.05.25-.04.52-.04.78,0,.28-.03.59.04.86-.26,0-.55.09-.82.04,0-.29-.05-.6-.04-.91.12-.02.71.03.76,0,.06-.04,0-.66.02-.78.03,0,.06,0,.09,0Z"/>
          <path class="cls-19" d="M16.72,1.71c-.11.17-.63-.02-.69.06v.76h-.82c0-.28,0-.54,0-.82.27.05.56-.04.82-.04.22,0,.46.04.69.04Z"/>
          <path class="cls-7" d="M15.95.03c-.02.12.03.74-.02.78-.05.03-.64-.02-.76,0,0-.16-.05-.69.06-.78.24-.07.47,0,.71,0Z"/>
          <path class="cls-12" d="M16.81.07c-.11.11.01.68-.06.73-.05.03-.64-.02-.76,0,0-.26,0-.52.04-.78.25.01.54-.04.78.04Z"/>
          <path class="cls-8" d="M16.81,1.71c0,.27,0,.55,0,.82h-.78v-.76c.06-.08.58.1.69-.06h.09Z"/>
        </g>
        <path class="cls-4" d="M10.98,9.26c3.91,0,7.83.09,11.74.04,0,.27,0,.55,0,.82-1.84,0-3.68.04-5.52.04-2.63,0-5.27-.01-7.9,0-.01-.3,0-.61,0-.91h1.68Z"/>
        <path class="cls-11" d="M13.44,5.94c.3,0,.62.05.91.04.31,1.21-.75.59-.86.84-.09.2.11,1.58-.06,1.66-.44-.1-2.08.13-2.37,0-.13-.06-.04-.72-.06-.86.22,0,.67.07.82-.09,0,0,.06.04.06.09l.8-.06c-.04-.22.1-.74-.13-.8.26-.08.07-.61.13-.82.26,0,.52,0,.78,0Z"/>
        <path class="cls-3" d="M19.36,6.76c.27,0,.55,0,.82,0,.01,0,.03,0,.04,0-.08.27-.04.58-.04.86,0,.15.04.81-.06.86l-1.62-.06v-1.6c.09-.11.69-.06.86-.06Z"/>
        <path class="cls-10" d="M17.63,5.94c.27,0,.53,0,.8,0l.02.76c-.06.08-.75-.06-.82.09-.22.49.52.88-.82.76-.02-.03.03-.64.04-.73-.1-.2-.75,0-.82-.11-.02-.03,0-.64,0-.76.53,0,1.07-.02,1.6,0Z"/>
        <path class="cls-9" d="M15.99,5.08c.08.27.03.58.04.86-.56,0-1.13.04-1.68.04-.29,0-.61-.05-.91-.04.08-.27.04-.58.04-.86.83,0,1.67,0,2.5,0Z"/>
        <path class="cls-9" d="M16.03,6.8l-.04,1.68c-.54,0-1.08,0-1.62,0-.02-.11-.05-.81-.02-.84.05-.07.77.03.82-.04.06-.08-.09-.77.06-.84.26-.05.54.04.8.04Z"/>
        <path class="cls-3" d="M16.85,6.8c-.01.09-.06.7-.04.73.12.19.63.02.86.11-.04.16.05.66,0,.78s-1.47.07-1.68.06l.04-1.68c.13,0,.74-.12.82,0Z"/>
        <path class="cls-3" d="M17.67,5.08l-.04.86c-.53-.02-1.07,0-1.6,0,0-.28.04-.59-.04-.86.28,0,.59-.04.86-.04s.55.04.82.04Z"/>
        <path class="cls-9" d="M10.12,8.44c.8.02.95-.08.86.82h-1.68c0-.14-.05-.65,0-.73.08-.13.64-.09.82-.09Z"/>
        <path class="cls-15" d="M21.04,7.54c-.25.16-.58.06-.86.09,0-.28-.04-.59.04-.86.25,0,.51-.04.76.04.11.09.06.58.06.73Z"/>
        <path class="cls-3" d="M11.8,6.76c0,.1-.02.74,0,.78-.15.16-.6.09-.82.09-.01,0-.03,0-.04,0,.08-.27.04-.58.04-.86.27,0,.55,0,.82,0Z"/>
        <path class="cls-15" d="M20.18,6.76c-.27,0-.55,0-.82,0v-.82c.12,0,.77-.02.8,0,.06.04,0,.7.02.82Z"/>
        <path class="cls-15" d="M21.86,8.44c-.12,0-.79.02-.82-.02,0-.27.01-.53,0-.8.12.02.75-.03.8,0,.06.04,0,.7.02.82Z"/>
        <path class="cls-10" d="M12.67,5.94c-.06.21.13.74-.13.82-.14-.04-.55,0-.73,0,0-.13-.04-.77.06-.82.27,0,.53,0,.8,0Z"/>
        <path class="cls-11" d="M12.54,6.76c.23.06.09.58.13.8l-.8.06s-.06-.08-.06-.09c-.02-.04,0-.67,0-.78.19,0,.59-.04.73,0Z"/>
      </g>
    </g>
  </g>
</svg>