<?xml version="1.0" encoding="UTF-8"?>
<svg id="Layer_1" data-name="Layer 1" xmlns="http://www.w3.org/2000/svg" viewBox="0 0 137 286">
  <defs>
    <style>
      .cls-1 {
        fill: #33ed4d;
      }

      .cls-2 {
        fill: #bfc18c;
      }

      .cls-3 {
        fill: #9a965f;
      }

      .cls-4 {
        fill: #22f2ef;
      }

      .cls-5 {
        fill: #fefefe;
      }

      .cls-6 {
        fill: #b8ff9e;
      }

      .cls-7 {
        fill: #94983f;
      }

      .cls-8 {
        fill: #0ea147;
      }

      .cls-9 {
        fill: #eeefe0;
      }
    </style>
  </defs>
  <g id="Generative_Object" data-name="Generative Object">
    <g>
      <path class="cls-4" d="M76.94,102h-4.21V21.84c1.23-.02,2.7-.16,3.96-.25.41,26.79.31,53.61.25,80.4Z"/>
      <path class="cls-4" d="M69.27,102h-3.96c-.03-26.69-.42-53.45,0-80.16,1.08.05,2.71-.02,3.96,0v80.16Z"/>
      <path class="cls-2" d="M72.73,102h-3.46V21.84c1.05.02,2.42.02,3.46,0v80.16Z"/>
      <g>
        <path class="cls-1" d="M89.55,218.03c-1.25,0-2.95.51-4.33.25-.44.31.17,6.39-.12,6.8-.27.39-3.52-.1-3.83.12-.45.32.32,3.35-.49,3.71-.55.24-3.44-.44-3.83.12-.29.41.33,5.44,0,6.18-.37.83-3.64.04-3.96.49-.28.39.31,5.76-.12,6.06h-3.71c-.43-.3.15-5.67-.12-6.06-.32-.46-3.59.33-3.96-.49-.33-.74.29-5.77,0-6.18-.16-.23-3.8-.27-3.96-.49-.33-.47.5-5.71-.12-6.8-1.46.26-11.15-.34-11.63,0-.38.27.13,3.19-.25,3.46-.3.21-3.28-.3-3.71.25-.47.59.33,3.1-.49,3.46-.52.23-3.3-.28-3.59.12-.23.32.17,5.3,0,6.18-.68.22-3.9.45-4.21-.25-.8-8.89,1.17-4.55,3.83-6.31.57-.38.15-3.22.49-3.46.29-.2,2.97.22,3.46,0,.8-.36.11-2.97.37-3.34.91-1.28,3.93,2.56,4.21-3.59,5.62,1.41,3.26-2.99,4.33-3.46.49-.22,3.18.2,3.46,0,.38-.27-.13-3.19.25-3.46.16-.11,3.25,0,3.83,0,1.32,0,2.64,0,3.96,0,0,2.3-.03,4.62,0,6.93.03,1.87-.13,3.83,0,5.69.14.71-.19,4.3,0,4.58.32.46,3.59-.33,3.96.49.39.88-.55,6.15.37,6.56l3.09-.12c.03-2.18-.04-4.38,0-6.56.67-.59,3.67.04,3.96-.37s-.01-8.69,0-10.02c.02-2.39.21-4.81.25-7.17,1.89.07,3.81-.1,5.69,0,.41.02,1.51-.51,1.73.12s-.41,3,.37,3.34c2.27,1.01,5.75-2.36,4.82,3.22Z"/>
        <path class="cls-1" d="M76.94,186.86c-.43-26.97-.06-53.93,0-80.9l3.96.37v69.77c.28.4,4-.11,4.33.12.38.27-.13,3.19.25,3.46.15.1,3.01-.02,3.59,0l.49,3.34c-.31.44-4.19-.16-4.82.12-.82.36-.05,3.39-.49,3.71-.36.25-6.29-.19-7.3,0Z"/>
        <path class="cls-1" d="M65.06,186.86c-.98-.19-6.7.25-7.05,0-.44-.31.31-3.44-.49-3.71-.2-.07-3.39.05-4.33,0-.04-.98.06-1.99,0-2.97.55-1.08,3.37-.16,3.83-.49.44-.31-.31-3.1.49-3.46.64-.28,3.47.45,3.83-.37v-69.77l3.96-.12c.03,26.95-.42,53.96-.25,80.9Z"/>
        <path class="cls-7" d="M76.94,105.96c-.06,26.97-.43,53.93,0,80.9.02,1.04-.28,2.44-.25,3.71-.75-.03-3.68.26-3.96-.37v-88.2h4.21c0,1.32,0,2.64,0,3.96Z"/>
        <path class="cls-7" d="M65.56,190.57c.01-1.46-.49-2.86-.49-3.71-.17-26.94.28-53.95.25-80.9,0-1.32,0-2.64,0-3.96h3.96v88.44c-.18.25-3.14.11-3.71.12Z"/>
        <path class="cls-1" d="M93.51,214.81c-6.69.13-2.73-1.85-3.96-3.59-.25-.35-1.98.11-2.23-.25-1.11-1.57,2.58-3.78-4.45-3.59.25-.6-.38-2.33.25-2.97.91.01,6.25.1,6.56-.25,1.65-1.83-3.09-3.12,3.83-3.46,2.42-.12,4.87.09,7.3,0l.12-6.8c-.37-.52-9.78.13-11.13.12-2.27-.01-4.62-.24-6.93-.25v-3.22c7.1-.19,2.79-.15,4.21-3.34.33-.75,2.2-.1,2.47-.49,1.25-1.78-2.86-3.73,3.96-3.59.54.01,3.29-.12,3.46.12.2.87-.2,6.41,0,6.68.3.41,3.28-.12,3.83.12.88.39-.14,3.32.74,3.71.53.23,3.3-.28,3.59.12.21.29-.25,3.07.12,3.34.44.31,7.47-.33,7.79.12l-.12,3.59h-11.88c-.48.34.2,5.71-.12,6.56-.16.4-3.62.22-3.83.37-.33.24,0,5.9-.12,6.8-.17.24-2.93.11-3.46.12Z"/>
        <path class="cls-1" d="M58.63,207.64c-6.61-.25-2.45,1.54-3.71,3.34-.26.37-1.94-.23-2.23.49-.07.18.53,2.33.25,2.97s-2.82.35-3.46.37c-.7.02-3.94.22-4.21-.37-.17-.91.23-6.1,0-6.43-.27-.39-3.52.1-3.83-.12-.44-.31.31-3.11-.49-3.46-1.01-.45-6.41.45-7.42,0-.81-.36-.05-3.15-.49-3.46-.41-.29-3.47.46-3.83-.37-.13-.29-.12-3.12.37-3.34.59-.26,10.12.02,11.75,0,.05.95-.17,6.97.12,7.17,3.83-.06,7.68.07,11.5,0,1.85-.04,3.88.14,5.69,0v3.22Z"/>
        <path class="cls-1" d="M60.36,194.03c-1.04.02-7.24-.22-7.55,0-.38.27.13,2.95-.25,3.22-.15.1-3.1.23-3.59.25-2.46.08-5.15-.28-7.67-.25-.35-6.36-.8-2.11-3.83-3.46-.5-.22-.49-3.1-.37-3.34.37-.72,6.96-.04,8.04-.37l.12-6.56c.27-.62,3.23-.36,3.96-.37,1-.02,1.95.23,2.72.25-1.17,5.07,2.49,2.76,2.97,3.83.26.59-.43,2.98.37,3.34.38.17,4.42-.02,5.32,0l-.25,3.46Z"/>
        <path class="cls-7" d="M93.51,183.15c-6.81-.14-2.71,1.81-3.96,3.59-.28.39-2.14-.26-2.47.49-1.41,3.19,2.89,3.14-4.21,3.34-.74.02-1.49-.01-2.23,0-1.3.02-2.66.06-3.96,0-.03-1.27.26-2.67.25-3.71,1-.19,6.94.25,7.3,0,.45-.32-.32-3.35.49-3.71.63-.28,4.51.31,4.82-.12l-.49-3.34c.16,0,.33,0,.49,0h3.71c-.01.87.52,2.41.25,3.46Z"/>
        <path class="cls-1" d="M52.94,179.68h-3.71c-.33-6.08-1.22-2.3-3.83-3.46-.8-.36-.11-2.97-.37-3.34-.28-.4-3.06.11-3.59-.12-1.15-.51,1.45-5.01-4.33-3.83l.12-3.34c.61.13,3.47-.17,3.71,0,.36.26-.2,3.11.49,3.46.41.21,3.18-.2,3.46,0,.38.27-.08,2.57.12,3.09.5,1.29,3.79.05,4.21.99.21.48-.26,2.82.12,3.09.3.21,3.32-.26,3.59.12.11.15-.05,2.76,0,3.34Z"/>
        <path class="cls-7" d="M61.35,211.35c-.59,0-3.68-.11-3.83,0-.38.27.13,3.19-.25,3.46-.29.2-2.97-.22-3.46,0-1.07.47,1.29,4.87-4.33,3.46.04-.89-.71-2.43,0-3.46.65-.02,3.19.25,3.46-.37s-.32-2.79-.25-2.97c.29-.73,1.96-.12,2.23-.49,1.26-1.8-2.89-3.59,3.71-3.34.57.02,1.52-.11,1.98,0,.34.08.24-.08.49.25.47.6.15,2.66.25,3.46Z"/>
        <path class="cls-7" d="M93.27,218.28c-1.07,0-2.15.01-3.22,0-.03,0,.12-.25-.49-.25.93-5.57-2.55-2.21-4.82-3.22-.78-.34-.14-2.69-.37-3.34s-1.32-.1-1.73-.12l-.25-3.71c.26-.08.33.14.49-.25,7.03-.19,3.34,2.02,4.45,3.59.25.35,1.98-.11,2.23.25,1.23,1.74-2.73,3.72,3.96,3.59.26,1.07-.25,2.56-.25,3.46Z"/>
        <path class="cls-1" d="M105.14,229.04c.13.28.1,5.89,0,6.18-6.93,2.35-2.68-4.38-3.96-6.18-.39-.54-5.7,1.25-3.96-3.22.4-1.02,2.62-.5,3.59-.62.81.36.05,3.15.49,3.46.41.29,3.47-.46,3.83.37Z"/>
        <path class="cls-1" d="M105.14,165.7v3.22c-5.74-1.03-3.28,3.27-4.08,3.83-.27.19-3.53.16-3.83-.62-1.74-4.47,3.57-2.67,3.96-3.22.94-1.33-2.36-4.4,3.96-3.22Z"/>
        <path class="cls-1" d="M93.27,179.68h-3.71c-.71-5.64,1.8-2.54,3.59-3.46,1.2-.62-1.53-4.71,3.96-3.46l.12,3.34c-3.84.2-3.9-.54-3.96,3.59Z"/>
        <path class="cls-7" d="M53.19,183.15c-.12,0-.66.26-1.24.25-.77-.02-1.72-.26-2.72-.25-.04-1.15.06-2.32,0-3.46h3.71c.06.62.25.47.25.49.06.98-.04,1.99,0,2.97Z"/>
        <path class="cls-1" d="M93.51,221.74c-.76-.04-3.67.27-3.96-.37-.06-.14-.3-3.09.49-3.09,1.07.01,2.15,0,3.22,0,0,1.04.19,2.37.25,3.46Z"/>
        <path class="cls-1" d="M93.51,221.74c1.19.06,2.4-.05,3.59,0l.12,3.34-3.59.12c-.26-.18-.1-2.91-.12-3.46Z"/>
        <path class="cls-8" d="M72.73,228.91c-.04,2.18.03,4.37,0,6.56l-3.09.12c-.92-.41.02-5.68-.37-6.56-.37-.83-3.64-.04-3.96-.49-.19-.27.14-3.87,0-4.58.1,1.43.44,2.87.25,4.33l3.59.12c.28-.2.11-6,.12-6.93h3.46c-.02,2.47.04,4.95,0,7.42Z"/>
        <path class="cls-7" d="M76.69,218.52l-3.71-.25c.04-3.37-.54-6.87-.25-10.27.28-.63,3.21-.34,3.96-.37-.04,1.24.27,2.55.25,3.71-.04,2.37-.22,4.78-.25,7.17Z"/>
        <path class="cls-7" d="M69.27,218.28h-3.96c-.03-2.3,0-4.62,0-6.93v-3.46l.25-.25c.61.1,3.49-.19,3.71.12.3.43,0,9.16,0,10.51Z"/>
        <path class="cls-4" d="M72.73,228.91c.04-2.47-.02-4.95,0-7.42.01-1.07.24-2.21.25-3.22l3.71.25c-.01,1.32.29,9.61,0,10.02s-3.29-.21-3.96.37Z"/>
        <path class="cls-4" d="M69.27,221.49c-.02.93.16,6.73-.12,6.93l-3.59-.12c.19-1.46-.15-2.9-.25-4.33-.13-1.86.03-3.82,0-5.69h3.96c0,1.07.02,2.15,0,3.22Z"/>
        <path class="cls-8" d="M82.63,211.35c-1.88-.1-3.8.07-5.69,0,.02-1.16-.29-2.47-.25-3.71,1.34-.06,4.73.28,5.69,0l.25,3.71Z"/>
        <path class="cls-8" d="M65.31,211.35c-1.32,0-2.64,0-3.96,0-.1-.8.22-2.87-.25-3.46h4.21v3.46Z"/>
        <path class="cls-7" d="M65.56,190.57c-1.63.05-3.32.04-4.95,0-.89-.02-4.94.17-5.32,0-.8-.36-.11-2.75-.37-3.34-.48-1.07-4.14,1.23-2.97-3.83.58.01,1.12-.25,1.24-.25.94.05,4.12-.07,4.33,0,.8.28.05,3.4.49,3.71.35.25,6.07-.19,7.05,0,0,.86.51,2.25.49,3.71Z"/>
        <path class="cls-7" d="M93.51,200.71c-6.93.35-2.19,1.63-3.83,3.46-.31.34-5.65.26-6.56.25s-1.9-.23-2.85-.25c-.19,0,0-.5-.37-.49.51-5.14-.99-2.4-2.85-3.22-.66-.29-.42-2.75,0-2.97,1.62-.85,3.71,1.96,3.09-3.34-.31-.44-3.11.31-3.46-.49-.13-.28.02-2.49,0-3.09,1.3.06,2.66.02,3.96,0-.09.66-.44,2.66-.25,3.09.38.85,1.93.12,2.47.12,2.3.01,4.66.24,6.93.25-1.39,6.5,4.98-.06,3.71,6.68Z"/>
        <path class="cls-4" d="M93.51,200.71c1.27-6.74-5.1-.18-3.71-6.68,1.36,0,10.76-.65,11.13-.12l-.12,6.8c-2.42.09-4.88-.12-7.3,0Z"/>
        <path class="cls-3" d="M82.88,207.39c-.17.39-.23.17-.49.25-.96.28-4.35-.06-5.69,0,.03-1.11-.02-2.23,0-3.34.2-.29,2.59-.11,3.09-.12.2,0,.1-.49.12-.49.38,0,.18.49.37.49.94.02,1.97.23,2.85.25-.63.63,0,2.37-.25,2.97Z"/>
        <path class="cls-3" d="M82.88,193.78c-.55,0-2.1.73-2.47-.12-.19-.44.16-2.44.25-3.09.74-.01,1.49.02,2.23,0v3.22Z"/>
        <path class="cls-7" d="M62.09,203.68c-.16.4-1.14.68-1.48.74-.1.02-1.31-.05-1.98,0-1.81.14-3.84-.04-5.69,0,1.26-5.47-3.13-2.9-3.83-3.71-.34-.4,0-2.55-.12-3.22.49-.02,3.44-.14,3.59-.25.38-.27-.13-2.95.25-3.22.31-.22,6.51.02,7.55,0,.65-.02,1.51.26,1.73.25-.51,5.14.99,2.4,2.85,3.22.47.21.51,2.53.37,2.85-.35.8-2.91.06-3.22.49-.18.26.19,2.39,0,2.85Z"/>
        <path class="cls-6" d="M52.94,204.42c-3.83.07-7.67-.06-11.5,0-.29-.21-.07-6.22-.12-7.17,2.52-.03,5.21.33,7.67.25.12.66-.22,2.82.12,3.22.7.81,5.1-1.76,3.83,3.71Z"/>
        <path class="cls-4" d="M60.61,207.64c-.45-.11-1.41.02-1.98,0v-3.22c.67-.05,1.88.02,1.98,0v3.22Z"/>
        <path class="cls-2" d="M62.09,194.28c-.23,0-1.08-.26-1.73-.25l.25-3.46c1.63.04,3.32.05,4.95,0-.01,1.11,0,2.23,0,3.34-1.12,0-2.38.33-3.46.37Z"/>
        <path class="cls-3" d="M65.56,207.64l-.25.25h-4.21c-.26-.33-.16-.16-.49-.25v-3.22c.34-.06,1.32-.35,1.48-.74.31,1.12,3.1.09,3.46.62.16.23-.12,2.77,0,3.34Z"/>
        <g>
          <path class="cls-5" d="M79.91,203.68s.08.49-.12.49c-.51.02-2.89-.16-3.09.12-.02,1.11.03,2.23,0,3.34-.75.03-3.68-.26-3.96.37-.29,3.4.29,6.9.25,10.27-.01,1.01-.24,2.15-.25,3.22h-3.46c.02-1.07,0-2.15,0-3.22,0-1.36.3-10.09,0-10.51-.22-.32-3.1-.02-3.71-.12-.12-.57.16-3.11,0-3.34-.37-.52-3.15.5-3.46-.62.19-.45-.18-2.59,0-2.85.3-.43,2.86.3,3.22-.49.14-.31.1-2.64-.37-2.85-1.85-.82-3.35,1.93-2.85-3.22,1.08-.04,2.35-.38,3.46-.37,0-1.11-.01-2.23,0-3.34.57-.02,3.53.13,3.71-.12v-88.44h3.46v88.2c.28.63,3.21.34,3.96.37.02.61-.13,2.81,0,3.09.36.81,3.15.05,3.46.49.62,5.3-1.47,2.49-3.09,3.34-.42.22-.66,2.68,0,2.97,1.85.82,3.35-1.93,2.85,3.22Z"/>
          <path class="cls-9" d="M69.02,204.3c.27,3.22-.02,3.47-3.22,2.97-.23-3.35-.16-3.44,3.22-2.97Z"/>
        </g>
      </g>
    </g>
  </g>
</svg>